<svg width="150" height="48" viewBox="0 0 150 48" fill="none" xmlns="http://www.w3.org/2000/svg">
<g clip-path="url(#clip0_19_55)">
<path d="M79.0534 12.0601C79.0534 13.7898 77.6945 15.1832 76.0075 15.1832C74.3205 15.1832 72.9616 13.7898 72.9616 12.0601C72.9616 10.3303 74.2737 8.93694 76.0075 8.93694C77.7413 8.98498 79.0534 10.3784 79.0534 12.0601ZM66.4948 18.3544C66.4948 18.6426 66.4948 19.1231 66.4948 19.1231C66.4948 19.1231 65.0422 17.2012 61.9494 17.2012C56.8416 17.2012 52.8585 21.1892 52.8585 26.7147C52.8585 32.1922 56.7947 36.2282 61.9494 36.2282C65.089 36.2282 66.4948 34.2583 66.4948 34.2583V35.0751C66.4948 35.4595 66.776 35.7477 67.1509 35.7477H70.9466V17.6817C70.9466 17.6817 67.4789 17.6817 67.1509 17.6817C66.776 17.6817 66.4948 18.018 66.4948 18.3544ZM66.4948 29.9339C65.7919 30.991 64.3861 31.9039 62.6992 31.9039C59.7001 31.9039 57.4039 29.982 57.4039 26.7147C57.4039 23.4474 59.7001 21.5255 62.6992 21.5255C64.3393 21.5255 65.8388 22.4865 66.4948 23.4955V29.9339ZM73.7582 17.6817H78.2568V35.7477H73.7582V17.6817ZM140.956 17.2012C137.863 17.2012 136.41 19.1231 136.41 19.1231V8.98499H131.912V35.7477C131.912 35.7477 135.38 35.7477 135.708 35.7477C136.082 35.7477 136.364 35.4114 136.364 35.0751V34.2583C136.364 34.2583 137.816 36.2282 140.909 36.2282C146.017 36.2282 150 32.1922 150 26.7147C150 21.2372 146.017 17.2012 140.956 17.2012ZM140.206 31.8559C138.472 31.8559 137.113 30.9429 136.41 29.8859V23.4474C137.113 22.4865 138.613 21.4775 140.206 21.4775C143.205 21.4775 145.501 23.3994 145.501 26.6667C145.501 29.9339 143.205 31.8559 140.206 31.8559ZM129.569 25.033V35.7958H125.07V25.5616C125.07 22.5826 124.133 21.3814 121.603 21.3814C120.244 21.3814 118.838 22.1021 117.948 23.1592V35.7477H113.449V17.6817H117.01C117.385 17.6817 117.666 18.018 117.666 18.3544V19.1231C118.978 17.7297 120.712 17.2012 122.446 17.2012C124.414 17.2012 126.054 17.7778 127.366 18.9309C128.96 20.2763 129.569 22.006 129.569 25.033ZM102.53 17.2012C99.4377 17.2012 97.985 19.1231 97.985 19.1231V8.98499H93.4864V35.7477C93.4864 35.7477 96.9541 35.7477 97.2821 35.7477C97.657 35.7477 97.9381 35.4114 97.9381 35.0751V34.2583C97.9381 34.2583 99.3908 36.2282 102.484 36.2282C107.591 36.2282 111.575 32.1922 111.575 26.7147C111.621 21.2372 107.638 17.2012 102.53 17.2012ZM101.781 31.8559C100.047 31.8559 98.6879 30.9429 97.985 29.8859V23.4474C98.6879 22.4865 100.187 21.4775 101.781 21.4775C104.78 21.4775 107.076 23.3994 107.076 26.6667C107.076 29.9339 104.78 31.8559 101.781 31.8559ZM89.597 17.2012C90.9559 17.2012 91.6589 17.4414 91.6589 17.4414V21.7177C91.6589 21.7177 87.91 20.4204 85.567 23.1592V35.7958H81.0684V17.6817C81.0684 17.6817 84.5361 17.6817 84.8641 17.6817C85.239 17.6817 85.5201 18.018 85.5201 18.3544V19.1231C86.3636 18.1141 88.1912 17.2012 89.597 17.2012ZM42.8772 34.1141C42.6429 33.5375 42.4086 32.9129 42.1743 32.3844C41.7994 31.5195 41.4245 30.7027 41.0965 29.9339L41.0497 29.8859C37.8163 22.6787 34.3486 15.3754 30.6935 8.16817L30.5529 7.87988C30.1781 7.15916 29.8032 6.39039 29.4283 5.62162C28.9597 4.75676 28.4911 3.84384 27.7413 2.97898C26.2418 1.05706 24.0862 0 21.7901 0C19.447 0 17.3383 1.05706 15.7919 2.88288C15.089 3.74775 14.5736 4.66066 14.105 5.52553C13.7301 6.29429 13.3552 7.06306 12.9803 7.78378L12.8397 8.07207C9.23149 15.2793 5.71696 22.5826 2.4836 29.7898L2.43674 29.8859C2.10871 30.6547 1.73383 31.4715 1.35895 32.3363C1.12465 32.8649 0.890346 33.4414 0.656044 34.0661C0.0468591 35.8438 -0.140582 37.5255 0.0937195 39.2553C0.609183 42.8589 2.9522 45.8859 6.18557 47.2312C7.40393 47.7598 8.66916 48 9.98125 48C10.3561 48 10.8247 47.952 11.1996 47.9039C12.746 47.7117 14.3393 47.1832 15.8857 46.2703C17.8069 45.1652 19.6345 43.5796 21.6963 41.2733C23.7582 43.5796 25.6326 45.1652 27.507 46.2703C29.0534 47.1832 30.6467 47.7117 32.1931 47.9039C32.5679 47.952 33.0365 48 33.4114 48C34.7235 48 36.0356 47.7598 37.2071 47.2312C40.4873 45.8859 42.7835 42.8108 43.299 39.2553C43.6739 37.5736 43.4864 35.8919 42.8772 34.1141ZM21.7432 36.6126C19.2127 33.3453 17.5726 30.2703 17.0103 27.6757C16.776 26.5706 16.7291 25.6096 16.8697 24.7447C16.9634 23.976 17.2446 23.3033 17.6195 22.7267C18.5098 21.4294 20.0094 20.6126 21.7432 20.6126C23.477 20.6126 25.0234 21.3814 25.8669 22.7267C26.2418 23.3033 26.523 23.976 26.6167 24.7447C26.7573 25.6096 26.7104 26.6186 26.4761 27.6757C25.9138 30.2222 24.2737 33.2973 21.7432 36.6126ZM40.4405 38.8709C40.1125 41.3694 38.4723 43.5315 36.1762 44.4925C35.0515 44.973 33.8332 45.1171 32.6148 44.973C31.4433 44.8288 30.2718 44.4444 29.0534 43.7237C27.3664 42.7628 25.6795 41.2733 23.7113 39.0631C26.8041 35.1712 28.6785 31.6156 29.3814 28.4444C29.7095 26.955 29.7563 25.6096 29.6157 24.3604C29.4283 23.1592 29.0066 22.0541 28.3505 21.0931C26.8978 18.9309 24.4611 17.6817 21.7432 17.6817C19.0253 17.6817 16.5886 18.979 15.1359 21.0931C14.4798 22.0541 14.0581 23.1592 13.8707 24.3604C13.6832 25.6096 13.7301 27.003 14.105 28.4444C14.8079 31.6156 16.7291 35.2192 19.7751 39.1111C17.8538 41.3213 16.12 42.8108 14.433 43.7718C13.2146 44.4925 12.0431 44.8769 10.8716 45.021C9.60637 45.1652 8.388 44.973 7.31021 44.5405C5.01406 43.5796 3.37394 41.4174 3.04592 38.9189C2.90534 37.7177 2.99906 36.5165 3.46766 35.1712C3.60825 34.6907 3.84255 34.2102 4.07685 33.6336C4.40487 32.8649 4.77976 32.048 5.15464 31.2312L5.2015 31.1351C8.43486 23.976 11.9025 16.6727 15.5108 9.56156L15.6514 9.27327C16.0262 8.55255 16.4011 7.78378 16.776 7.06306C17.1509 6.29429 17.5726 5.57357 18.0881 4.94895C19.0722 3.7958 20.3843 3.17117 21.8369 3.17117C23.2896 3.17117 24.6017 3.7958 25.5858 4.94895C26.1012 5.57357 26.523 6.29429 26.8978 7.06306C27.2727 7.78378 27.6476 8.55255 28.0225 9.27327L28.1631 9.56156C31.7245 16.7207 35.1921 24.024 38.4255 31.1832V31.2312C38.8004 32 39.1284 32.8649 39.5033 33.6336C39.7376 34.2102 39.9719 34.6907 40.1125 35.1712C40.4873 36.4204 40.6279 37.6216 40.4405 38.8709Z" fill="#363763"/>
</g>
<defs>
<clipPath id="clip0_19_55">
<rect width="150" height="48" fill="white"/>
</clipPath>
</defs>
</svg>
