<svg width="108" height="72" viewBox="0 0 108 72" fill="none" xmlns="http://www.w3.org/2000/svg">
<path fill-rule="evenodd" clip-rule="evenodd" d="M34.9798 65.599C26.0573 66.923 16.8585 67.6247 8.68021 71.7406C8.19249 71.984 7.59896 71.791 7.35147 71.3045C7.10791 70.8175 7.30139 70.2247 7.78862 69.9774C16.1583 65.7662 25.5601 64.9995 34.6901 63.6459C35.2296 63.5631 35.7341 63.9382 35.8129 64.4775C35.8955 65.0162 35.5193 65.5163 34.9798 65.599Z" fill="url(#paint0_linear_27_250)"/>
<path fill-rule="evenodd" clip-rule="evenodd" d="M34.1773 52.5241C31.0703 50.3065 27.788 48.7634 23.99 48.2675C23.4474 48.197 23.0674 47.7011 23.1359 47.1611C23.2084 46.6207 23.7069 46.2395 24.2455 46.3104C28.3755 46.8491 31.947 48.508 35.3248 50.9177C35.7703 51.234 35.8746 51.8509 35.5551 52.2946C35.2395 52.7375 34.6189 52.841 34.1773 52.5241Z" fill="url(#paint1_linear_27_250)"/>
<path fill-rule="evenodd" clip-rule="evenodd" d="M38.4712 23.5793C36.6499 19.3594 33.7069 16.2462 29.5399 14.251C29.0486 14.0155 28.8401 13.4255 29.078 12.9342C29.312 12.4433 29.9038 12.2355 30.395 12.4711C35.0068 14.6806 38.2697 18.1248 40.2865 22.7972C40.5037 23.297 40.2691 23.879 39.7699 24.0944C39.2669 24.3106 38.6846 24.0796 38.4712 23.5793Z" fill="url(#paint2_linear_27_250)"/>
<path fill-rule="evenodd" clip-rule="evenodd" d="M81.8145 12.1776C82.6864 12.9778 83.4885 13.8571 84.1962 14.8113C84.5118 15.2361 85.0871 16.1506 85.2609 16.9744C85.4492 17.8517 85.2398 18.6375 84.5118 19.1279C83.5447 19.7783 82.714 19.8259 82.0393 19.5885C81.3896 19.3606 80.8371 18.8232 80.4359 18.0606C79.6698 16.6028 79.4666 14.255 79.6035 12.8839C78.6877 12.1476 77.7031 11.499 76.6662 10.9424C68.9425 6.79711 58.7554 9.94014 51.6706 18.4461C49.1912 21.4241 48.5258 27.1157 48.5618 33.1631C48.6167 42.5793 50.5244 52.8676 50.9868 55.8937C51.0993 56.6412 51.0838 57.095 51.0556 57.1888C50.9254 57.6489 50.6138 57.8029 50.3916 57.8741C50.0693 57.9737 49.7987 57.9436 49.5732 57.8601C49.2682 57.7452 49 57.5095 48.8395 57.1144C48.7527 56.896 48.6981 56.5838 48.6645 56.2478C48.6435 56.0145 48.6592 55.7548 48.5915 55.5941C48.1533 54.5655 47.6556 53.5698 47.1647 52.5656C45.5235 49.189 43.5567 46.0779 41.4177 42.992C34.6223 33.1867 27.9338 22.7654 17.9323 15.8924C17.4838 15.5839 17.3677 14.969 17.6786 14.5199C17.9855 14.0714 18.6009 13.9577 19.0534 14.2661C29.2549 21.2746 36.1122 31.8687 43.0432 41.8681C44.8622 44.4932 46.5601 47.1372 48.0463 49.9387C47.2883 44.7512 46.4397 37.5457 46.604 31.057C46.7496 25.2862 47.7419 20.0792 50.1519 17.1842C57.913 7.86606 69.1441 4.66215 77.6021 9.20381C78.5068 9.69005 79.3796 10.2399 80.2042 10.8515C83.3641 3.01107 91.7097 -1.00822 99.842 1.54732C100.364 1.71059 100.652 2.2653 100.489 2.78471C100.323 3.30461 99.7688 3.59359 99.2467 3.43032C91.9185 1.12764 84.4017 4.92371 81.8145 12.1776ZM81.5499 14.7043C81.9232 15.1131 82.275 15.5414 82.6091 15.9877C82.7862 16.2275 83.0987 16.6921 83.2647 17.164C83.3023 17.2747 83.3283 17.4521 83.3385 17.5344C83.0842 17.7011 82.8804 17.7916 82.697 17.7264C82.468 17.6466 82.3271 17.4094 82.1865 17.1424C81.8326 16.4726 81.6309 15.5515 81.5499 14.7043Z" fill="url(#paint3_linear_27_250)"/>
<defs>
<linearGradient id="paint0_linear_27_250" x1="35.9956" y1="65.9494" x2="7.07413" y2="69.5316" gradientUnits="userSpaceOnUse">
<stop stop-color="#CC4FA4"/>
<stop offset="0.505" stop-color="#865BBC"/>
<stop offset="1" stop-color="#4698DF"/>
</linearGradient>
<linearGradient id="paint1_linear_27_250" x1="35.3821" y1="48.7681" x2="23.4863" y2="50.2415" gradientUnits="userSpaceOnUse">
<stop stop-color="#CC4FA4"/>
<stop offset="0.505" stop-color="#865BBC"/>
<stop offset="1" stop-color="#4698DF"/>
</linearGradient>
<linearGradient id="paint2_linear_27_250" x1="39.6898" y1="17.6534" x2="29.6576" y2="18.896" gradientUnits="userSpaceOnUse">
<stop stop-color="#CC4FA4"/>
<stop offset="0.505" stop-color="#865BBC"/>
<stop offset="1" stop-color="#4698DF"/>
</linearGradient>
<linearGradient id="paint3_linear_27_250" x1="103.389" y1="25.471" x2="20.062" y2="35.7919" gradientUnits="userSpaceOnUse">
<stop stop-color="#CC4FA4"/>
<stop offset="0.505" stop-color="#865BBC"/>
<stop offset="1" stop-color="#4698DF"/>
</linearGradient>
</defs>
</svg>
