<svg width="44" height="64" viewBox="0 0 44 64" fill="none" xmlns="http://www.w3.org/2000/svg">
<g clip-path="url(#clip0_19_65)">
<path d="M22 32C22 26.1691 26.8747 21.442 32.888 21.442C38.9012 21.442 43.776 26.1691 43.776 32C43.776 37.8311 38.9012 42.5581 32.888 42.5581C26.8747 42.5581 22 37.8311 22 32Z" fill="#363763"/>
<path d="M0.224121 53.1162C0.224121 47.2852 5.09884 42.5581 11.1121 42.5581H22.0001V53.1162C22.0001 58.9473 17.1255 63.6743 11.1121 63.6743C5.09884 63.6743 0.224121 58.9473 0.224121 53.1162Z" fill="#363763"/>
<path d="M22 0.325867V21.4419H32.888C38.9013 21.4419 43.776 16.715 43.776 10.8839C43.776 5.05288 38.9013 0.325867 32.888 0.325867H22Z" fill="#363763"/>
<path d="M0.224121 10.8839C0.224121 16.715 5.09884 21.442 11.1121 21.442H22.0001V0.325867H11.1121C5.09884 0.325867 0.224121 5.05287 0.224121 10.8839Z" fill="#2D2E53"/>
<path d="M0.224121 32C0.224121 37.8311 5.09884 42.5581 11.1121 42.5581H22.0001V21.442H11.1121C5.09884 21.442 0.224121 26.1691 0.224121 32Z" fill="#363763"/>
</g>
<defs>
<clipPath id="clip0_19_65">
<rect width="44" height="64" fill="white"/>
</clipPath>
</defs>
</svg>
