<svg width="125" height="125" viewBox="0 0 125 125" fill="none" xmlns="http://www.w3.org/2000/svg">
<g clip-path="url(#clip0_32_410)">
<path fill-rule="evenodd" clip-rule="evenodd" d="M31.9058 58.7538C30.3343 59.1932 27.5847 59.4833 25.1588 60.0539C23.0536 60.5494 21.1597 61.2988 19.9972 62.2886C18.8485 63.2642 18.1949 64.5817 17.9108 66.0696C17.6272 67.5855 17.761 69.302 17.8079 70.6643C18.0086 76.3903 18.7382 82.0994 19.1121 87.8114C19.2026 89.271 20.4657 90.3843 21.9253 90.2938C23.3932 90.2004 24.4954 88.9316 24.4049 87.472C24.0402 81.813 23.3171 76.1487 23.1173 70.4786C23.0863 69.5891 22.971 68.5133 23.0722 67.4929C23.1072 67.0585 23.1085 66.608 23.4261 66.337C24.0862 65.7863 25.1956 65.4998 26.3835 65.2233C28.8874 64.6347 31.7232 64.3237 33.3449 63.8667C34.7548 63.4747 35.5793 62.0033 35.1789 60.5963C34.787 59.1864 33.3241 58.3589 31.9058 58.7538Z" fill="url(#paint0_linear_32_410)"/>
<path fill-rule="evenodd" clip-rule="evenodd" d="M34.5456 69.9747C30.7833 71.3335 26.8751 72.4901 23.0306 73.6151C21.6266 74.0238 20.8132 75.5007 21.2219 76.9048C21.6418 78.3143 23.1074 79.122 24.5198 78.7104C28.4674 77.5586 32.4843 76.3638 36.3468 74.9698C37.7299 74.4747 38.4415 72.9491 37.9381 71.5689C37.4459 70.1942 35.9204 69.4825 34.5456 69.9747Z" fill="url(#paint1_linear_32_410)"/>
<path fill-rule="evenodd" clip-rule="evenodd" d="M39.104 62.6595C39.3486 64.1306 39.7031 66.3416 39.745 66.8615C40.1018 71.3227 40.4558 75.7757 40.7566 80.2378C40.85 81.7057 42.1185 82.8078 43.5781 82.7173C45.0431 82.6155 46.1482 81.355 46.0547 79.8871C45.7535 75.397 45.4021 70.9245 45.0365 66.4382C44.97 65.6081 44.4622 62.0253 44.1407 60.4687C43.9287 59.4645 43.555 58.8548 43.4321 58.6917C42.9578 58.0891 42.4084 57.8599 41.9757 57.7493C41.1017 57.5309 40.245 57.6818 39.4731 58.4218C39.3409 58.5527 38.5693 59.3207 38.6335 61.2397C38.6504 61.7684 38.8204 62.2526 39.104 62.6595Z" fill="url(#paint2_linear_32_410)"/>
<path fill-rule="evenodd" clip-rule="evenodd" d="M53.9252 69.3905C56.9774 66.6772 58.4658 62.262 57.9459 58.8054C57.6048 56.5522 56.4807 54.6867 54.6411 53.5882C52.9824 52.6043 50.6302 52.1827 47.463 53.1262C45.8502 53.6082 44.4978 54.6179 43.2105 55.6796C41.73 56.9124 40.2953 58.3823 39.3654 60.0877C38.6638 61.3752 39.1459 62.988 40.4333 63.6895C41.7208 64.391 43.3336 63.909 44.0351 62.6215C44.6387 61.5091 45.6259 60.5808 46.5981 59.7704C47.3329 59.1653 48.0525 58.4905 48.9886 58.2181C50.4482 57.7805 51.4856 57.7163 52.1218 58.2995C52.6645 58.803 52.773 59.6467 52.7392 60.5121C52.6568 62.3606 51.716 64.4356 50.0956 65.6706C48.5662 66.8174 46.9825 67.1954 45.1906 67.6746C42.9664 68.2587 43.0819 70.0565 43.1141 70.4954C43.1636 71.144 43.4174 72.1334 44.6638 72.7181C44.8301 72.791 45.1877 72.9279 45.6839 72.9788C46.0569 73.026 46.81 73.0337 47.1467 73.0843C48.033 73.2045 48.9508 73.3603 49.8168 73.6096C52.5499 74.3943 55.2135 75.5694 57.3985 77.4377C58.5024 78.3913 60.1825 78.2607 61.1331 77.1484C62.095 76.0414 61.9645 74.3616 60.8522 73.411C58.8089 71.6524 56.4287 70.3496 53.9252 69.3905Z" fill="url(#paint3_linear_32_410)"/>
<path fill-rule="evenodd" clip-rule="evenodd" d="M79.2115 42.7252C77.0812 43.2294 73.6755 43.4406 70.7383 44.2376C68.1856 44.9277 65.9705 46.0714 64.6488 47.7831C63.0886 49.8036 62.4472 52.4112 62.3717 55.2141C62.2893 58.6384 63.0797 62.3846 63.3516 65.2155C63.4855 66.5848 63.5616 68.1899 64.0671 69.5225C64.5672 70.8663 65.4334 71.9974 66.8474 72.7389C68.7299 73.7192 70.9902 73.8257 73.3197 73.3546C76.0341 72.8046 78.851 71.4777 80.8757 70.6729C82.2412 70.1276 82.8993 68.5835 82.3541 67.218C81.8119 65.8608 80.2647 65.1941 78.9076 65.7364C77.3947 66.3427 75.3865 67.3014 73.3499 67.8853C71.9095 68.2974 70.4593 68.6284 69.3022 68.0311C68.9127 67.8302 68.9276 67.3654 68.8595 66.9578C68.7355 66.2041 68.7089 65.4069 68.6388 64.6999C68.4209 62.4503 67.8436 59.6047 67.7041 56.8305C67.5941 54.6744 67.6803 52.5431 68.8485 51.0355C69.7698 49.8396 71.605 49.4297 73.4435 49.0561C75.9905 48.5367 78.6681 48.3091 80.4497 47.8804C81.8689 47.5415 82.7528 46.1056 82.4138 44.6864C82.072 43.2589 80.639 42.3833 79.2115 42.7252Z" fill="url(#paint4_linear_32_410)"/>
<path fill-rule="evenodd" clip-rule="evenodd" d="M78.9628 54.2245C75.0142 55.1328 71.2027 56.5651 67.3517 57.805C65.9594 58.2471 65.1912 59.7457 65.6362 61.1464C66.0867 62.5358 67.5851 63.304 68.9745 62.8536C72.6835 61.6636 76.3587 60.2697 80.1595 59.3945C81.5816 59.0639 82.4766 57.6333 82.146 56.2112C81.8125 54.7807 80.3933 53.8909 78.9628 54.2245Z" fill="url(#paint5_linear_32_410)"/>
<path fill-rule="evenodd" clip-rule="evenodd" d="M92.1436 59.2673C92.0894 59.033 92.0077 58.6396 91.9841 58.3853C91.8946 57.5163 91.8836 56.6573 91.7878 56.0906C91.4534 53.9101 90.9428 51.2007 90.836 48.5463C90.7506 46.3533 90.8923 44.1932 91.9439 42.5671C92.217 42.1429 92.7053 41.8776 93.2526 41.6197C94.1246 41.1916 95.1579 40.8756 96.2172 40.6068C98.8371 39.9212 101.578 39.4462 103.168 38.7379C104.507 38.1455 105.109 36.5742 104.517 35.2346C103.916 33.8979 102.345 33.2961 101.005 33.8885C99.2877 34.6604 96.0306 35.054 93.296 35.9205C90.7367 36.7255 88.5876 37.9774 87.4868 39.6771C86.173 41.7049 85.6059 44.2301 85.5173 46.9156C85.4182 50.3458 86.1042 54.0349 86.5474 56.8994C86.7043 57.9604 86.6831 59.9563 87.2145 61.336C87.679 62.5517 88.4659 63.4571 89.5401 63.9521C91.4743 64.8392 93.7112 64.8791 95.9956 64.3864C98.69 63.806 101.456 62.4686 103.539 61.6153C104.901 61.0617 105.548 59.5121 104.995 58.1495C104.444 56.7953 102.892 56.1399 101.54 56.6988C99.9636 57.337 97.9725 58.3176 95.9418 58.9183C94.627 59.3143 93.2995 59.621 92.1436 59.2673Z" fill="url(#paint6_linear_32_410)"/>
<path fill-rule="evenodd" clip-rule="evenodd" d="M103.491 45.8639C99.2197 47.0545 95.0007 48.208 90.8318 49.6908C89.4487 50.1859 88.7257 51.7061 89.2208 53.0892C89.713 54.4639 91.2329 55.187 92.616 54.6919C96.6681 53.2501 100.767 52.1293 104.911 50.9743C106.321 50.5824 107.148 49.1194 106.756 47.7095C106.361 46.2912 104.898 45.4636 103.491 45.8639Z" fill="url(#paint7_linear_32_410)"/>
</g>
<defs>
<linearGradient id="paint0_linear_32_410" x1="15.5494" y1="77.9695" x2="38.4608" y2="69.9233" gradientUnits="userSpaceOnUse">
<stop stop-color="#CC4FA4"/>
<stop offset="0.505" stop-color="#865BBC"/>
<stop offset="1" stop-color="#4698DF"/>
</linearGradient>
<linearGradient id="paint1_linear_32_410" x1="21.3318" y1="77.2273" x2="37.884" y2="71.4144" gradientUnits="userSpaceOnUse">
<stop stop-color="#CC4FA4"/>
<stop offset="0.505" stop-color="#865BBC"/>
<stop offset="1" stop-color="#4698DF"/>
</linearGradient>
<linearGradient id="paint2_linear_32_410" x1="37.6964" y1="71.8247" x2="47.0335" y2="68.5457" gradientUnits="userSpaceOnUse">
<stop stop-color="#CC4FA4"/>
<stop offset="0.505" stop-color="#865BBC"/>
<stop offset="1" stop-color="#4698DF"/>
</linearGradient>
<linearGradient id="paint3_linear_32_410" x1="41.818" y1="69.7052" x2="59.7292" y2="63.4151" gradientUnits="userSpaceOnUse">
<stop stop-color="#CC4FA4"/>
<stop offset="0.505" stop-color="#865BBC"/>
<stop offset="1" stop-color="#4698DF"/>
</linearGradient>
<linearGradient id="paint4_linear_32_410" x1="61.6078" y1="62.5255" x2="85.72" y2="54.0577" gradientUnits="userSpaceOnUse">
<stop stop-color="#CC4FA4"/>
<stop offset="0.505" stop-color="#865BBC"/>
<stop offset="1" stop-color="#4698DF"/>
</linearGradient>
<linearGradient id="paint5_linear_32_410" x1="65.7332" y1="61.4249" x2="81.9891" y2="55.7161" gradientUnits="userSpaceOnUse">
<stop stop-color="#CC4FA4"/>
<stop offset="0.505" stop-color="#865BBC"/>
<stop offset="1" stop-color="#4698DF"/>
</linearGradient>
<linearGradient id="paint6_linear_32_410" x1="84.5555" y1="53.7707" x2="108.128" y2="45.4924" gradientUnits="userSpaceOnUse">
<stop stop-color="#CC4FA4"/>
<stop offset="0.505" stop-color="#865BBC"/>
<stop offset="1" stop-color="#4698DF"/>
</linearGradient>
<linearGradient id="paint7_linear_32_410" x1="89.3096" y1="53.3421" x2="106.607" y2="47.2673" gradientUnits="userSpaceOnUse">
<stop stop-color="#CC4FA4"/>
<stop offset="0.505" stop-color="#865BBC"/>
<stop offset="1" stop-color="#4698DF"/>
</linearGradient>
<clipPath id="clip0_32_410">
<rect width="100" height="100" fill="white" transform="translate(0 28.8164) rotate(-16.7481)"/>
</clipPath>
</defs>
</svg>
