<svg width="87" height="92" viewBox="0 0 87 92" fill="none" xmlns="http://www.w3.org/2000/svg">
<path fill-rule="evenodd" clip-rule="evenodd" d="M31.7275 13.7945C31.54 12.682 31.3988 11.5822 31.3075 10.4822C31.17 8.83217 31.255 7.16955 31.2063 5.51955C31.185 4.81955 31.1013 2.99458 31.135 2.73208C31.4413 0.444578 33.2875 0.0945352 33.8275 0.0320352C34.0887 -0.00546475 36.7712 -0.305331 37.35 2.66967C38.06 6.30717 38.2875 9.96962 38.0363 13.5571C38.6225 16.6071 39.625 19.6446 40.9488 22.3946C46.2163 33.3321 56.2537 34.3946 67.1287 34.2946C68.8012 34.2696 70.19 35.5821 70.2775 37.2446C70.365 38.9196 69.12 40.3696 67.455 40.5196C61.3763 41.1071 50.5912 45.9821 46.8625 51.0571C46.0825 52.1196 45.6287 54.6822 45.0287 57.1947C44.1912 60.6822 43.195 64.1321 42.0788 65.5821C41.9113 65.8071 39.875 68.1072 39.2675 68.4447C37.8075 69.2447 36.6388 68.7821 35.975 68.3571C35.3113 67.9321 34.56 67.0946 34.26 65.7071C33.9463 64.2571 34.2113 61.282 34.1625 60.6445C33.985 58.332 33.5225 53.7946 32.5788 49.8946C32.07 47.7946 31.5275 45.8571 30.63 44.8946C27.3075 41.3321 21.995 41.8571 17.5213 42.4446C17.0075 42.5071 16.4938 42.5821 15.9813 42.6446C14.16 43.1821 12.2262 43.5821 10.1825 43.8196C7.09622 44.1821 6.58876 41.3446 6.56126 41.1571C6.50376 40.7446 6.28999 38.6196 8.61624 37.7696C8.86999 37.6821 10.7425 37.2696 11.4638 37.1071C12.4688 36.8821 13.485 36.7071 14.505 36.5446C25.0412 33.2696 30.7638 24.0695 31.7275 13.7945ZM35.3438 25.1572C39.3213 33.3822 45.3575 37.3571 52.5125 39.1571H52.5113C48.0438 41.4946 43.98 44.4197 41.8262 47.3572C41.0087 48.4697 40.2587 50.7071 39.5825 53.2196C39.2162 50.8821 38.7213 48.3945 38.0675 46.2695C37.3238 43.8445 36.3225 41.8322 35.205 40.6322C33.0475 38.3197 30.34 37.0321 27.4287 36.3946C30.9137 33.3071 33.5563 29.4572 35.3438 25.1572Z" fill="url(#paint0_linear_34_23)"/>
<g clip-path="url(#clip0_34_23)">
<path fill-rule="evenodd" clip-rule="evenodd" d="M72.162 57.9935C72.3061 57.6346 72.4614 57.2875 72.6315 56.9494C72.8863 56.4422 73.2085 55.971 73.4893 55.4796C73.6082 55.2711 73.9101 54.7222 73.9669 54.6515C74.4655 54.0371 75.0682 54.2648 75.2373 54.3431C75.3205 54.3788 76.1588 54.7708 75.7961 55.7446C75.3533 56.9356 74.765 58.0477 74.05 59.0522C73.6761 60.0493 73.4262 61.1171 73.3216 62.1582C72.9067 66.2997 75.653 68.4055 78.8521 70.3209C79.3459 70.6126 79.5174 71.2449 79.2457 71.7469C78.9718 72.2525 78.3483 72.4541 77.8344 72.2002C75.9512 71.2851 71.9244 70.7826 69.9261 71.6004C69.508 71.7718 68.917 72.4402 68.2922 73.0679C67.4236 73.9384 66.5152 74.7694 65.9294 74.994C65.8402 75.0299 64.8332 75.3386 64.5951 75.3287C64.025 75.3016 63.7658 74.9573 63.6476 74.7143C63.5295 74.4713 63.4595 74.0919 63.6198 73.6324C63.7873 73.1521 64.3969 72.3292 64.4966 72.134C64.8582 71.4258 65.5343 70.0158 65.9556 68.7061C66.1823 68.0008 66.3701 67.337 66.2796 66.895C65.9448 65.2587 64.2968 64.4623 62.883 63.8342C62.7216 63.7606 62.5579 63.6907 62.3968 63.6173C61.7679 63.4489 61.1307 63.2201 60.4903 62.9241C59.5227 62.4782 59.8816 61.5574 59.9071 61.4977C59.9641 61.3667 60.2815 60.7069 61.114 60.8742C61.2039 60.894 61.8254 61.1082 62.0655 61.1896C62.3997 61.3035 62.7283 61.434 63.0557 61.5689C66.7235 62.495 70.0427 60.8269 72.162 57.9935ZM71.188 61.9641C70.8807 65.0814 71.9357 67.3236 73.7069 69.1296L73.7066 69.1294C71.9817 69.0143 70.2698 69.1433 69.1145 69.6175C68.6764 69.7967 68.0569 70.3171 67.4098 70.9312C67.7207 70.1819 68.0207 69.3657 68.2095 68.6272C68.4255 67.7848 68.4925 67.0171 68.3802 66.4662C68.1625 65.4039 67.6007 64.5431 66.8631 63.836C68.4347 63.556 69.8962 62.9023 71.188 61.9641Z" fill="url(#paint1_linear_34_23)"/>
</g>
<g clip-path="url(#clip1_34_23)">
<path fill-rule="evenodd" clip-rule="evenodd" d="M10.7066 70.4436C10.4604 70.1453 10.2301 69.8427 10.0147 69.5316C9.69132 69.0651 9.43188 68.5566 9.13488 68.0749C9.00871 67.8706 8.67134 67.3428 8.63642 67.2591C8.33571 66.5272 8.82417 66.1071 8.97387 65.996C9.04505 65.9402 9.79051 65.3918 10.4718 66.1764C11.3056 67.1353 12.0003 68.1842 12.5399 69.2929C13.2363 70.0984 14.0542 70.829 14.9182 71.4192C18.3557 73.7661 21.5191 72.3631 24.7323 70.4713C25.2248 70.1775 25.8621 70.3295 26.1728 70.8084C26.4856 71.2909 26.364 71.9348 25.8951 72.2645C24.1901 73.4798 21.8213 76.7746 21.5827 78.9205C21.5329 79.3697 21.8369 80.2086 22.0889 81.0576C22.4373 82.2369 22.7321 83.4323 22.6488 84.0541C22.6375 84.1496 22.4265 85.1815 22.3039 85.3858C22.0072 85.8734 21.5808 85.9361 21.3109 85.9235C21.0409 85.9109 20.6744 85.7908 20.3477 85.43C20.0062 85.0531 19.5755 84.124 19.4519 83.943C19.0032 83.2864 18.0889 82.0178 17.1408 81.021C16.6301 80.4843 16.1372 80.0017 15.7058 79.8695C14.1089 79.3802 12.6207 80.4458 11.3925 81.3863C11.2506 81.4928 11.1108 81.6031 10.9693 81.7094C10.5203 82.1809 10.0144 82.6308 9.44799 83.0513C8.59332 83.6874 7.95673 82.9315 7.91645 82.8805C7.82874 82.7678 7.40139 82.1732 7.94684 81.5224C8.00723 81.453 8.4928 81.0098 8.67922 80.8381C8.93922 80.5991 9.21112 80.3732 9.48628 80.1502C12.0552 77.3734 12.1797 73.6607 10.7066 70.4436ZM13.7264 73.1996C16.3162 74.9616 18.7898 75.1088 21.2233 74.4183L21.223 74.4185C20.2962 75.8778 19.5899 77.4425 19.4532 78.6839C19.4008 79.1543 19.5612 79.9473 19.7905 80.8094C19.2815 80.1778 18.7085 79.5236 18.1504 79.0044C17.5143 78.4114 16.8723 77.9851 16.3349 77.82C15.2981 77.5025 14.2734 77.5837 13.2995 77.8928C13.806 76.379 13.9317 74.7829 13.7264 73.1996Z" fill="url(#paint2_linear_34_23)"/>
</g>
<defs>
<linearGradient id="paint0_linear_34_23" x1="6.5293" y1="34.4441" x2="70.2819" y2="34.4441" gradientUnits="userSpaceOnUse">
<stop stop-color="#CC4FA4"/>
<stop offset="0.505" stop-color="#865BBC"/>
<stop offset="1" stop-color="#4698DF"/>
</linearGradient>
<linearGradient id="paint1_linear_34_23" x1="61.0982" y1="59.5282" x2="79.7478" y2="70.9285" gradientUnits="userSpaceOnUse">
<stop stop-color="#CC4FA4"/>
<stop offset="0.505" stop-color="#865BBC"/>
<stop offset="1" stop-color="#4698DF"/>
</linearGradient>
<linearGradient id="paint2_linear_34_23" x1="6.75752" y1="80.892" x2="25.6945" y2="69.9758" gradientUnits="userSpaceOnUse">
<stop stop-color="#CC4FA4"/>
<stop offset="0.505" stop-color="#865BBC"/>
<stop offset="1" stop-color="#4698DF"/>
</linearGradient>
<clipPath id="clip0_34_23">
<rect width="24" height="24" fill="white" transform="translate(66.5176 49) rotate(31.4369)"/>
</clipPath>
<clipPath id="clip1_34_23">
<rect width="24" height="24" fill="white" transform="translate(0.108398 71.0938) rotate(-29.9611)"/>
</clipPath>
</defs>
</svg>
