<svg width="226" height="222" viewBox="0 0 226 222" fill="none" xmlns="http://www.w3.org/2000/svg">
<g clip-path="url(#clip0_32_404)">
<path fill-rule="evenodd" clip-rule="evenodd" d="M77.5638 124.021C77.0762 144.919 80.2443 166.813 91.3261 184.241C95.3576 190.583 100.648 195.614 106.014 200.814C106.39 201.179 107.015 201.166 107.408 200.783C107.8 200.399 107.812 199.791 107.433 199.425C102.171 194.325 96.9696 189.402 93.0161 183.183C82.0914 166.002 79.0322 144.399 79.5393 123.802L79.8654 123.771C83.4072 123.443 87.2041 120.418 90.5394 116.039C95.3211 109.761 99.2421 100.758 100.408 93.9284C100.931 90.8595 100.888 88.2121 100.192 86.3845C99.651 84.9592 98.7216 83.9871 97.4098 83.5559C94.6137 82.6388 91.6058 84.3447 88.8795 87.7351C83.1756 94.8244 78.3815 109.203 77.9355 115.84C77.797 117.913 77.6889 120.003 77.6192 122.104C76.9972 122.178 76.3878 122.248 75.7933 122.29C74.0992 122.405 72.5002 122.288 70.8964 121.265C68.3987 119.667 66.7061 117.052 65.5267 114.077C63.6895 109.434 63.1189 103.909 62.9272 99.7185C61.8611 76.3796 72.3867 58.8648 85.2656 45.5735C98.2745 32.1527 113.684 23.0095 122.188 16.5287C122.626 16.1961 122.715 15.5919 122.391 15.179C122.067 14.7661 121.448 14.7022 121.011 15.0369C112.452 21.5589 96.9516 30.7767 83.8577 44.2888C70.6339 57.9305 59.8623 75.924 60.9547 99.8817C61.154 104.247 61.7677 109.995 63.6812 114.831C65.0074 118.177 66.9565 121.086 69.7677 122.883C72.2911 124.495 74.7853 124.332 77.5638 124.021ZM79.598 121.875L79.7605 121.861C82.8565 121.575 86.0549 118.767 88.9707 114.937C93.5656 108.905 97.3405 100.255 98.46 93.6894C98.8454 91.4383 98.9185 89.4435 98.5746 87.909C98.2894 86.6436 97.7311 85.7127 96.7109 85.3799C95.7489 85.061 94.7668 85.2581 93.7906 85.7983C92.6434 86.4307 91.516 87.5093 90.4137 88.878C84.9335 95.6907 80.3323 109.508 79.9044 115.886C79.773 117.867 79.6686 119.864 79.598 121.875Z" fill="#CCCCD8"/>
<path fill-rule="evenodd" clip-rule="evenodd" d="M109.873 201.47C109.458 201.6 108.852 201.612 108.202 201.616C106.652 201.628 104.877 201.412 104.035 201.344C103.493 201.301 103.003 201.696 102.935 202.223C102.868 202.753 103.252 203.216 103.794 203.259C104.826 203.341 107.191 203.625 108.962 203.508C109.911 203.445 110.713 203.245 111.198 202.933C112.025 202.402 112.213 201.463 111.488 200.194C110.628 198.693 108.304 196.299 107.992 193.413C107.937 192.89 107.448 192.526 106.909 192.604C106.366 192.681 105.972 193.168 106.029 193.694C106.327 196.444 108.186 198.837 109.325 200.508C109.541 200.826 109.752 201.229 109.873 201.47Z" fill="#CCCCD8"/>
</g>
<defs>
<clipPath id="clip0_32_404">
<rect width="160.974" height="169.129" fill="white" transform="translate(148.889) rotate(61.6824)"/>
</clipPath>
</defs>
</svg>
