<svg width="128" height="41" viewBox="0 0 128 41" fill="none" xmlns="http://www.w3.org/2000/svg">
<g clip-path="url(#clip0_19_44)">
<path d="M16.0114 14.3108V18.5949H26.3502C26.0758 20.9649 25.2523 22.7879 23.9714 23.9729C22.5075 25.4313 20.1287 27.072 16.0114 27.072C9.69835 27.072 4.75768 21.9675 4.75768 15.6781C4.75768 9.38861 9.60686 4.28412 16.0114 4.28412C19.3967 4.28412 21.9585 5.6514 23.7884 7.38327L26.8077 4.37527C24.2459 1.91418 20.7691 0 16.0114 0C7.31951 0 0 7.01867 0 15.6781C0 24.3375 7.31951 31.3561 16.0114 31.3561C20.6776 31.3561 24.2459 29.8066 26.9907 26.9809C29.827 24.1552 30.7419 20.1445 30.7419 16.9542C30.7419 15.9515 30.6505 15.04 30.559 14.3108H16.0114Z" fill="#363763"/>
<path d="M43.551 10.7559C37.9699 10.7559 33.3037 15.04 33.3037 20.8737C33.3037 26.7074 37.8784 30.9915 43.551 30.9915C49.2236 30.9915 53.7983 26.7985 53.7983 20.9648C53.7983 15.04 49.2236 10.7559 43.551 10.7559ZM43.551 27.072C40.4402 27.072 37.7869 24.5197 37.7869 20.9648C37.7869 17.3188 40.4402 14.8577 43.551 14.8577C46.6618 14.8577 49.3151 17.3188 49.3151 20.9648C49.3151 24.5197 46.6618 27.072 43.551 27.072Z" fill="#363763"/>
<path d="M93.5985 13.0346H93.4155C92.409 11.8497 90.4877 10.7559 88.0173 10.7559C82.8937 10.7559 78.502 15.1311 78.502 20.8737C78.502 26.5251 82.8937 30.9915 88.0173 30.9915C90.4877 30.9915 92.409 29.8977 93.4155 28.7127H93.5985V30.1711C93.5985 33.9995 91.4941 36.096 88.2003 36.096C85.4555 36.096 83.8086 34.1818 83.0766 32.4499L79.2339 34.0907C80.3318 36.7341 83.3511 40.1067 88.2918 40.1067C93.507 40.1067 97.9902 37.0075 97.9902 29.5331V11.3028H93.7814V13.0346H93.5985ZM88.4748 27.072C85.364 27.072 83.0766 24.4286 83.0766 20.9648C83.0766 17.4099 85.4555 14.8577 88.4748 14.8577C91.4941 14.8577 93.8729 17.5011 93.8729 21.056C93.9644 24.5197 91.5856 27.072 88.4748 27.072Z" fill="#363763"/>
<path d="M66.3333 10.7559C60.7521 10.7559 56.0859 15.04 56.0859 20.8737C56.0859 26.7074 60.6606 30.9915 66.3333 30.9915C72.0059 30.9915 76.5806 26.7985 76.5806 20.9648C76.5806 15.04 72.0059 10.7559 66.3333 10.7559ZM66.3333 27.072C63.2225 27.072 60.5691 24.5197 60.5691 20.9648C60.5691 17.3188 63.2225 14.8577 66.3333 14.8577C69.444 14.8577 72.0974 17.3188 72.0974 20.9648C72.0974 24.5197 69.444 27.072 66.3333 27.072Z" fill="#363763"/>
<path d="M101.375 0.45575H105.767V31.0826H101.375V0.45575Z" fill="#363763"/>
<path d="M119.308 27.072C117.021 27.072 115.465 26.0693 114.367 23.9728L128 18.4126L127.542 17.2276C126.719 14.9488 124.066 10.7559 118.851 10.7559C113.635 10.7559 109.244 14.8577 109.244 20.8737C109.244 26.5251 113.544 30.9915 119.308 30.9915C123.974 30.9915 126.627 28.1658 127.817 26.5251L124.34 24.2463C123.151 25.9782 121.595 27.072 119.308 27.072ZM119.034 14.5842C120.863 14.5842 122.419 15.4957 122.876 16.7719L113.727 20.6002C113.635 16.4073 116.746 14.5842 119.034 14.5842Z" fill="#363763"/>
</g>
<defs>
<clipPath id="clip0_19_44">
<rect width="128" height="40.1067" fill="white"/>
</clipPath>
</defs>
</svg>
