<svg width="32" height="32" viewBox="0 0 32 32" fill="none" xmlns="http://www.w3.org/2000/svg">
<path fill-rule="evenodd" clip-rule="evenodd" d="M11.9522 5.91037C11.8719 5.43373 11.8114 4.9625 11.7723 4.49121C11.7134 3.78428 11.7498 3.07195 11.7289 2.36502C11.7198 2.06511 11.6839 1.28321 11.6984 1.17075C11.8296 0.190686 12.6206 0.040713 12.8519 0.0139353C12.9639 -0.00213125 14.1132 -0.130606 14.3611 1.14401C14.6653 2.70247 14.7628 4.27161 14.6552 5.80865C14.9063 7.1154 15.3358 8.41676 15.903 9.59498C18.1598 14.2811 22.4603 14.7363 27.1196 14.6934C27.8362 14.6827 28.4312 15.2451 28.4687 15.9573C28.5062 16.675 27.9728 17.2962 27.2594 17.3605C24.655 17.6122 20.0342 19.7009 18.4367 21.8752C18.1025 22.3304 17.9081 23.4283 17.651 24.5048C17.2922 25.999 16.8654 27.4771 16.3871 28.0983C16.3154 28.1947 15.4429 29.1802 15.1827 29.3248C14.5571 29.6675 14.0564 29.4693 13.772 29.2873C13.4877 29.1052 13.1658 28.7463 13.0373 28.1519C12.9028 27.5306 13.0164 26.256 12.9955 25.9829C12.9194 24.9921 12.7213 23.0481 12.3169 21.3771C12.099 20.4774 11.8665 19.6473 11.482 19.2349C10.0585 17.7086 7.78241 17.9335 5.86567 18.1853C5.64556 18.212 5.42545 18.2442 5.20587 18.271C4.42557 18.5013 3.59705 18.6726 2.72142 18.7744C1.39915 18.9297 1.18173 17.714 1.16994 17.6336C1.14531 17.4569 1.05372 16.5465 2.05038 16.1823C2.1591 16.1448 2.96137 15.9681 3.27038 15.8984C3.70096 15.802 4.13636 15.7271 4.57337 15.6575C9.08754 14.2543 11.5393 10.3126 11.9522 5.91037ZM13.5016 10.7786C15.2057 14.3025 17.7919 16.0056 20.8574 16.7768H20.8569C18.9428 17.7782 17.2017 19.0315 16.2789 20.29C15.9287 20.7667 15.6074 21.7253 15.3176 22.8017C15.1607 21.8002 14.9486 20.7345 14.6686 19.824C14.3499 18.785 13.9209 17.9229 13.4421 17.4087C12.5178 16.418 11.3577 15.8663 10.1104 15.5932C11.6036 14.2704 12.7357 12.6209 13.5016 10.7786Z" fill="#8F41B4"/>
</svg>
