<svg width="433" height="43" viewBox="0 0 433 43" fill="none" xmlns="http://www.w3.org/2000/svg">
<path fill-rule="evenodd" clip-rule="evenodd" d="M159.49 17.7551C156.871 18.4084 154.268 19.0962 151.681 19.8209C150.739 20.0844 150.19 21.0639 150.451 22.0076L150.465 22.0446C136.353 22.7514 122.25 23.5933 108.157 24.5738C87.7988 25.991 67.3272 27.8979 47.0764 30.483C27.0638 33.0375 21.5337 33.707 4.36514 37.4468C3.87415 37.5537 2.9212 37.5791 2.41321 37.7398C1.93014 37.8923 1.58882 38.1419 1.37219 38.3823C1.09462 38.6872 0.940411 39.0329 0.882381 39.4076C0.821365 39.8159 0.859248 40.3111 1.2239 40.8536C2.25238 42.3764 3.84837 42.7516 5.7678 42.3606C7.41931 42.0239 9.39484 40.9578 10.9642 40.7921C37.089 38.0354 63.1895 35.0723 89.3182 32.3536C129.318 28.1918 169.245 25.5402 209.196 23.4285C251.235 22.4226 293.291 22.5734 335.308 23.7937C362.673 24.5872 390.006 26.2008 417.352 27.5C417.336 27.6212 417.336 27.7471 417.346 27.8752C417.436 28.8504 418.301 29.5676 419.273 29.4762C420.258 29.3835 429.055 28.8435 430.665 28.3888C431.588 28.1282 431.933 27.5403 432.045 27.2897C432.351 26.6025 432.346 25.8668 431.595 25.1895C431.446 25.0597 431.17 24.8463 430.671 24.7206C430.245 24.6099 429.193 24.4869 427.286 24.4042C396.662 23.052 366.057 21.136 335.413 20.2443C321.732 19.849 308.047 19.5639 294.354 19.399C312.904 18.5488 331.46 17.6657 350.042 16.654C350.842 16.6128 351.227 16.4695 351.297 16.4363C352.304 15.9604 352.349 15.1486 352.315 14.6905C352.304 14.5269 352.124 13.18 350.62 13.0393C349.739 12.9565 343.399 12.9474 340.959 12.8977C329.23 12.6481 329.506 12.7388 317.511 12.5847C291.133 12.2494 264.805 12.3146 238.413 12.535C227.891 12.6233 217.37 12.7618 206.849 12.9555C237.075 9.37175 268.013 8.46268 297.484 7.17667C312.688 6.51361 327.898 5.94542 343.112 5.64341C349.926 5.50836 356.743 5.48801 363.557 5.38715C365.675 5.35558 367.787 5.37388 369.903 5.35509C370.153 5.35259 373.434 5.27209 373.971 5.24267C375.379 5.16572 375.664 3.89608 375.675 3.84524C375.727 3.60634 375.906 1.9047 374.148 1.70075C348.74 -1.24658 322.258 0.508025 296.697 0.730896C251.959 1.12078 207.143 2.82303 162.485 5.6831C142.732 6.94793 123.064 8.88 103.36 10.8068C93.5197 11.7692 83.654 12.7706 73.9365 14.6506C72.9616 14.8395 70.746 15.0734 69.6747 15.2945C69.1296 15.4074 68.7441 15.5698 68.5685 15.6778C67.7994 16.1468 67.6642 16.804 67.6662 17.2616C67.6692 17.6044 67.7801 18.8084 69.4053 19.1241C92.6286 23.6409 118.106 19.406 141.512 18.4384C147.504 18.1906 153.495 17.9633 159.49 17.7551ZM179.014 17.1459C172.103 18.4387 165.268 19.9287 158.537 21.6558C175.385 20.8737 192.24 20.284 209.108 19.8808C236.909 18.4113 264.719 17.2025 292.56 15.9284C274.529 15.8548 256.499 15.933 238.44 16.0842C218.633 16.2496 198.821 16.595 179.014 17.1459ZM275.107 4.56994C237.619 5.24725 200.108 6.82931 162.71 9.22454C142.993 10.4873 123.366 12.416 103.701 14.3392C95.9627 15.0959 88.2041 15.8744 80.5203 17.0971C100.531 18.9061 121.69 15.7058 141.37 14.8924C153.799 14.3787 166.237 13.9512 178.673 13.6048C210.137 7.75448 243.142 5.94385 275.107 4.56994Z" fill="url(#paint0_linear_19_9)"/>
<defs>
<linearGradient id="paint0_linear_19_9" x1="1.62048" y1="47.2303" x2="429.855" y2="3.22916" gradientUnits="userSpaceOnUse">
<stop stop-color="#CC4FA4"/>
<stop offset="0.505" stop-color="#865BBC"/>
<stop offset="1" stop-color="#4698DF"/>
</linearGradient>
</defs>
</svg>
