<svg width="48" height="48" viewBox="0 0 48 48" fill="none" xmlns="http://www.w3.org/2000/svg">
<path d="M38.1969 21.2765C30.4606 16.6822 17.6998 16.2598 10.3146 18.5012C9.12861 18.8611 7.87443 18.1914 7.51519 17.0057C7.15571 15.819 7.8245 14.5657 9.01139 14.2052C17.4891 11.6319 31.582 12.1288 40.4882 17.4156C41.5548 18.0489 41.9048 19.4266 41.2726 20.4915C40.6398 21.5582 39.261 21.9098 38.1969 21.2765ZM37.9435 28.0813C37.4007 28.9621 36.2492 29.2383 35.3696 28.6975C28.9199 24.7329 19.0851 23.5844 11.4546 25.9007C10.4651 26.1997 9.4199 25.6417 9.11932 24.6541C8.82118 23.6646 9.37937 22.6214 10.3671 22.3204C19.0838 19.6753 29.9201 20.9566 37.3279 25.5089C38.2075 26.0506 38.4843 27.2027 37.9435 28.0813ZM35.0068 34.6165C34.5755 35.3238 33.6547 35.5454 32.95 35.1143C27.3141 31.6698 20.2203 30.8919 11.8662 32.8C11.0612 32.9846 10.2588 32.4802 10.0752 31.6752C9.89085 30.8705 10.3934 30.068 11.2002 29.8843C20.3424 27.7943 28.1846 28.6938 34.5104 32.5593C35.2157 32.9901 35.4379 33.9115 35.0068 34.6165ZM24.0001 -4.05624e-07C10.7454 -4.05624e-07 0 10.7452 0 23.9997C0 37.2557 10.7454 48 24.0001 48C37.2551 48 48 37.2557 48 23.9997C48 10.7452 37.2551 -4.05624e-07 24.0001 -4.05624e-07Z" fill="#363763"/>
</svg>
